<svg width="46" height="24" viewBox="0 0 46 24" fill="none" xmlns="http://www.w3.org/2000/svg">
<rect x="0.578515" y="0.578515" width="44.843" height="22.2537" rx="8.67773" stroke="#49BEB7" stroke-width="1.15703"/>
<path d="M16.277 8.41127H17.286V8.94813C17.286 10.5865 16.5177 12.0582 14.8608 12.6043L14.2499 11.6324C15.6754 11.1604 16.277 10.0404 16.277 8.94813V8.41127ZM16.527 8.41127H17.5266V8.94813C17.5266 9.9478 18.1005 10.929 19.4797 11.3455L18.8966 12.3081C17.2675 11.8176 16.527 10.4754 16.527 8.94813V8.41127ZM14.5739 8.03176H19.202V9.01292H14.5739V8.03176ZM19.887 7.45787H21.1181V12.5396H19.887V7.45787ZM20.7756 9.42945H22.2566V10.4384H20.7756V9.42945ZM18.3227 12.6969C20.0999 12.6969 21.2199 13.3171 21.2199 14.363C21.2199 15.409 20.0999 16.0292 18.3227 16.0292C16.5362 16.0292 15.4162 15.409 15.4162 14.363C15.4162 13.3171 16.5362 12.6969 18.3227 12.6969ZM18.3227 13.6596C17.2304 13.6596 16.638 13.8817 16.638 14.363C16.638 14.8444 17.2304 15.085 18.3227 15.085C19.4149 15.085 19.998 14.8444 19.998 14.363C19.998 13.8817 19.4149 13.6596 18.3227 13.6596ZM22.8945 14.0206H30.6513V15.0295H22.8945V14.0206ZM26.1157 12.1138H27.3375V14.289H26.1157V12.1138ZM26.0694 7.92994H27.1431V8.55011C27.1431 10.3736 25.8195 11.9842 23.5795 12.3915L23.0704 11.364C25.0235 11.0493 26.0694 9.73491 26.0694 8.55011V7.92994ZM26.3101 7.92994H27.3838V8.55011C27.3838 9.76268 28.4298 11.0493 30.3921 11.364L29.883 12.3915C27.6337 11.9749 26.3101 10.4014 26.3101 8.55011V7.92994Z" fill="#49BEB7"/>
</svg>
