<svg width="20" height="19" viewBox="0 0 20 19" fill="none" xmlns="http://www.w3.org/2000/svg">
<path d="M10.2577 0.401123C4.93117 0.401123 0.63562 3.83753 0.63562 8.00937C0.63562 10.7173 2.42257 13.0884 5.10299 14.4424L4.19577 17.8307C4.17867 17.8815 4.17604 17.936 4.18818 17.9882C4.20031 18.0404 4.22674 18.0882 4.2645 18.1262C4.31956 18.1748 4.3904 18.2016 4.46382 18.2018C4.52468 18.1969 4.58243 18.1729 4.62876 18.1331L8.53256 15.5008C9.10881 15.5804 9.68969 15.6216 10.2714 15.6245C15.591 15.6245 19.8934 12.1881 19.8934 8.00937C19.8934 3.83065 15.5773 0.401123 10.2577 0.401123Z" fill="#392020"/>
<path d="M4.41965 6.78203H3.43808C3.31642 6.78585 3.19626 6.75213 3.09164 6.68485C3.04519 6.65336 3.00526 6.61181 2.97434 6.56284C2.94343 6.51387 2.92221 6.45852 2.91201 6.40026C2.90889 6.36332 2.90889 6.32621 2.91201 6.28927C2.90896 6.22015 2.92136 6.15121 2.94816 6.08838C2.97497 6.02555 3.01538 5.97067 3.06598 5.92834C3.17782 5.8407 3.31282 5.79441 3.45091 5.79642H6.40847C6.5311 5.79176 6.65207 5.82813 6.75491 5.90055C6.80245 5.93064 6.84323 5.97181 6.87429 6.02103C6.90536 6.07024 6.92594 6.12628 6.93454 6.18514C6.93767 6.21976 6.93767 6.25464 6.93454 6.28927C6.93757 6.35938 6.92519 6.42926 6.89843 6.4932C6.87166 6.55714 6.83127 6.61326 6.78057 6.65706C6.67145 6.74458 6.53775 6.78875 6.40205 6.78203H5.45256V10.4328C5.45641 10.5106 5.44528 10.5884 5.41988 10.6613C5.39448 10.7341 5.35536 10.8005 5.305 10.8562C5.2567 10.9094 5.19865 10.9511 5.13456 10.9786C5.07048 11.0061 5.00178 11.0188 4.93289 11.0158C4.81241 11.0195 4.69448 10.9779 4.59929 10.8979C4.50867 10.8197 4.44716 10.7088 4.42607 10.5855C4.41973 10.5348 4.41973 10.4835 4.42607 10.4328L4.41965 6.78203Z" fill="#FEE500"/>
<path d="M7.21774 6.06723C7.24595 5.95301 7.31222 5.85411 7.40379 5.78958C7.50135 5.72976 7.61253 5.70089 7.72456 5.7063H7.96835C8.08723 5.70169 8.20496 5.73293 8.30837 5.79653C8.41796 5.87626 8.49583 5.99765 8.52651 6.13662L9.80961 10.0581C9.84288 10.1604 9.87072 10.2648 9.89301 10.3705C9.89521 10.4144 9.89521 10.4584 9.89301 10.5023C9.89518 10.57 9.88368 10.6373 9.8593 10.6997C9.83492 10.762 9.79826 10.8178 9.75187 10.8633C9.70692 10.9131 9.65296 10.9524 9.59336 10.9787C9.53375 11.0049 9.46977 11.0176 9.40543 11.0159C9.30648 11.0266 9.2071 11.0009 9.1233 10.943C9.0395 10.8851 8.97617 10.7983 8.94351 10.6967L8.67406 9.84301H6.98678L6.71733 10.6967C6.68546 10.8003 6.62136 10.8888 6.53596 10.947C6.45056 11.0052 6.34914 11.0296 6.24899 11.0159C6.1405 11.019 6.03424 10.9823 5.94746 10.9118C5.86291 10.8391 5.80587 10.7354 5.78707 10.6204C5.78367 10.5811 5.78367 10.5416 5.78707 10.5023C5.77605 10.4334 5.77605 10.3631 5.78707 10.2942C5.78707 10.2178 5.83198 10.1345 5.85764 10.0581L7.21774 6.06723ZM7.85929 6.9765L7.24981 9.05871H8.46235L7.85929 6.9765Z" fill="#FEE500"/>
<path d="M10.04 6.28932C10.0335 6.13355 10.0842 5.98135 10.1811 5.86594C10.2304 5.81218 10.2895 5.77017 10.3547 5.74267C10.4199 5.71517 10.4897 5.70273 10.5596 5.70624C10.6798 5.70472 10.7971 5.74623 10.8932 5.82426C10.9824 5.90567 11.0415 6.01892 11.0601 6.1435C11.0664 6.19185 11.0664 6.24097 11.0601 6.28932V9.94012H12.8243C12.9466 9.93839 13.0668 9.97445 13.1708 10.0442C13.2175 10.0753 13.2576 10.1168 13.2886 10.1658C13.3195 10.2149 13.3406 10.2704 13.3504 10.3288C13.3504 10.3288 13.3504 10.3982 13.3504 10.4329C13.3534 10.502 13.341 10.5709 13.3142 10.6337C13.2874 10.6965 13.247 10.7515 13.1964 10.7938C13.0846 10.8814 12.9496 10.9277 12.8115 10.9256H10.643C10.5049 10.9353 10.3677 10.8964 10.2517 10.8147C10.148 10.7307 10.0789 10.6061 10.0592 10.4676C10.0545 10.3914 10.0545 10.3148 10.0592 10.2385L10.04 6.28932Z" fill="#FEE500"/>
<path d="M13.466 6.28913C13.4621 6.13382 13.5125 5.98266 13.6071 5.86576C13.7033 5.77123 13.8266 5.71541 13.9563 5.70783C14.0861 5.70024 14.2142 5.74131 14.3192 5.82407C14.4103 5.90477 14.4717 6.01796 14.4925 6.14331C14.4956 6.19184 14.4956 6.2406 14.4925 6.28913V7.98956L16.1156 5.96285C16.1781 5.89371 16.2445 5.82887 16.3145 5.76858C16.3804 5.72612 16.4559 5.70442 16.5326 5.70605C16.6447 5.70539 16.7544 5.74172 16.847 5.81018C16.8906 5.84195 16.9278 5.88295 16.9565 5.93065C16.9852 5.97836 17.0046 6.03179 17.0138 6.08782C17.0164 6.10156 17.0164 6.11576 17.0138 6.1295C17.0106 6.14552 17.0106 6.16203 17.0138 6.17805C17.0135 6.25109 16.9959 6.32285 16.9624 6.38631C16.9284 6.4535 16.8875 6.51628 16.8405 6.57363L15.7756 7.83689L17.0587 9.98848V10.0579C17.1253 10.1573 17.1772 10.2674 17.2126 10.3842V10.4188C17.2201 10.4992 17.2094 10.5804 17.1814 10.6554C17.1535 10.7303 17.1092 10.7968 17.0523 10.8491C16.9452 10.9366 16.8143 10.9831 16.6802 10.981C16.591 10.985 16.5025 10.9634 16.4235 10.9185C16.3381 10.8565 16.2677 10.7732 16.2182 10.6756L15.025 8.5934L14.454 9.23892V10.398C14.4578 10.5533 14.4074 10.7044 14.3128 10.8213C14.2621 10.8749 14.2018 10.9168 14.1356 10.9443C14.0694 10.9717 13.9987 10.9842 13.9279 10.981C13.8095 10.9837 13.6939 10.942 13.6007 10.863C13.5101 10.7849 13.4486 10.674 13.4275 10.5507C13.4211 10.5001 13.4211 10.4486 13.4275 10.398L13.466 6.28913Z" fill="#FEE500"/>
</svg>
