<svg width="65" height="65" viewBox="0 0 65 65" fill="none" xmlns="http://www.w3.org/2000/svg">
<path d="M37.706 51.1726C38.3353 51.1738 38.9452 50.9547 39.4297 50.5532C39.7024 50.3271 39.9279 50.0494 40.0931 49.736C40.2584 49.4227 40.3602 49.0798 40.3927 48.727C40.4252 48.3743 40.3878 48.0186 40.2827 47.6803C40.1775 47.342 40.0066 47.0278 39.7799 46.7556L27.7139 32.3195L39.3489 17.8565C39.5726 17.581 39.7397 17.264 39.8405 16.9238C39.9413 16.5835 39.9739 16.2267 39.9364 15.8738C39.8988 15.5209 39.7919 15.1789 39.6218 14.8674C39.4516 14.556 39.2216 14.2812 38.9449 14.059C38.6663 13.8138 38.3399 13.6288 37.9864 13.5157C37.6329 13.4027 37.2598 13.3639 36.8906 13.4018C36.5213 13.4397 36.1639 13.5536 35.8408 13.7362C35.5176 13.9188 35.2357 14.1662 35.0127 14.463L22.0041 30.6228C21.6079 31.1047 21.3914 31.7092 21.3914 32.333C21.3914 32.9568 21.6079 33.5613 22.0041 34.0432L35.4706 50.203C35.7408 50.529 36.084 50.7866 36.4724 50.9551C36.8608 51.1235 37.2834 51.1981 37.706 51.1726Z" fill="#4D4D4D"/>
</svg>
