<svg width="27" height="27" viewBox="0 0 27 27" fill="none" xmlns="http://www.w3.org/2000/svg">
<mask id="mask0_107_3740" style="mask-type:alpha" maskUnits="userSpaceOnUse" x="0" y="0" width="27" height="27">
<rect x="0.956299" y="0.956055" width="25.9563" height="25.9563" fill="#D9D9D9"/>
</mask>
<g mask="url(#mask0_107_3740)">
<path d="M12.4203 15.8811L10.0951 13.5558C9.89679 13.3576 9.64444 13.2584 9.33801 13.2584C9.03158 13.2584 8.77923 13.3576 8.58095 13.5558C8.38268 13.7541 8.28354 14.0065 8.28354 14.3129C8.28354 14.6193 8.38268 14.8717 8.58095 15.07L11.6633 18.1523C11.8796 18.3686 12.1319 18.4767 12.4203 18.4767C12.7087 18.4767 12.9611 18.3686 13.1774 18.1523L19.2879 12.0417C19.4862 11.8435 19.5853 11.5911 19.5853 11.2847C19.5853 10.9782 19.4862 10.7259 19.2879 10.5276C19.0896 10.3293 18.8373 10.2302 18.5309 10.2302C18.2244 10.2302 17.9721 10.3293 17.7738 10.5276L12.4203 15.8811ZM13.9344 24.7495C12.4383 24.7495 11.0324 24.4656 9.71654 23.8978C8.4007 23.33 7.2561 22.5594 6.28274 21.5861C5.30938 20.6127 4.53881 19.4681 3.97101 18.1523C3.40322 16.8364 3.11932 15.4305 3.11932 13.9344C3.11932 12.4383 3.40322 11.0323 3.97101 9.71648C4.53881 8.40064 5.30938 7.25604 6.28274 6.28268C7.2561 5.30932 8.4007 4.53875 9.71654 3.97095C11.0324 3.40316 12.4383 3.11926 13.9344 3.11926C15.4305 3.11926 16.8365 3.40316 18.1523 3.97095C19.4682 4.53875 20.6128 5.30932 21.5861 6.28268C22.5595 7.25604 23.3301 8.40064 23.8979 9.71648C24.4656 11.0323 24.7495 12.4383 24.7495 13.9344C24.7495 15.4305 24.4656 16.8364 23.8979 18.1523C23.3301 19.4681 22.5595 20.6127 21.5861 21.5861C20.6128 22.5594 19.4682 23.33 18.1523 23.8978C16.8365 24.4656 15.4305 24.7495 13.9344 24.7495ZM13.9344 22.5865C16.3498 22.5865 18.3957 21.7483 20.072 20.0719C21.7484 18.3956 22.5865 16.3497 22.5865 13.9344C22.5865 11.519 21.7484 9.47314 20.072 7.7968C18.3957 6.12046 16.3498 5.28228 13.9344 5.28228C11.5191 5.28228 9.4732 6.12046 7.79686 7.7968C6.12052 9.47314 5.28235 11.519 5.28235 13.9344C5.28235 16.3497 6.12052 18.3956 7.79686 20.0719C9.4732 21.7483 11.5191 22.5865 13.9344 22.5865Z" fill="#49BEB7"/>
</g>
</svg>
