<svg width="43" height="43" viewBox="0 0 43 43" fill="none" xmlns="http://www.w3.org/2000/svg">
<path d="M7.16663 26.875L35.8333 26.875" stroke="white" stroke-width="2" stroke-linecap="round" stroke-linejoin="round"/>
<path d="M7.16663 16.125L35.8333 16.125" stroke="white" stroke-width="2" stroke-linecap="round" stroke-linejoin="round"/>
<circle cx="21.5" cy="21.5" r="16.125" stroke="white" stroke-width="2" stroke-linecap="round" stroke-linejoin="round"/>
<path d="M21.5001 37.2991L20.7858 37.999C20.9739 38.191 21.2313 38.2991 21.5001 38.2991C21.7688 38.2991 22.0262 38.191 22.2143 37.999L21.5001 37.2991ZM21.5001 5.70068L22.2143 5.00078C22.0262 4.80884 21.7688 4.70068 21.5001 4.70068C21.2313 4.70068 20.9739 4.80884 20.7858 5.00078L21.5001 5.70068ZM26.9501 21.4999C26.9501 27.3788 24.6 32.7069 20.7858 36.5992L22.2143 37.999C26.38 33.748 28.9501 27.9231 28.9501 21.4999H26.9501ZM20.7858 6.40058C24.6 10.2929 26.9501 15.621 26.9501 21.4999H28.9501C28.9501 15.0767 26.38 9.25181 22.2143 5.00078L20.7858 6.40058ZM16.05 21.4999C16.05 15.621 18.4001 10.2929 22.2143 6.40058L20.7858 5.00078C16.6201 9.25181 14.05 15.0767 14.05 21.4999H16.05ZM22.2143 36.5992C18.4001 32.7069 16.05 27.3788 16.05 21.4999H14.05C14.05 27.9231 16.6201 33.748 20.7858 37.999L22.2143 36.5992Z" fill="white"/>
</svg>
