<svg width="22" height="23" viewBox="0 0 22 23" fill="none" xmlns="http://www.w3.org/2000/svg">
<path d="M10.9999 19.9883C10.8793 19.989 10.7597 19.965 10.648 19.9176C10.5363 19.8702 10.4347 19.8004 10.3491 19.7122L3.22659 12.307C2.33317 11.3696 1.83203 10.1041 1.83203 8.78523C1.83203 7.46641 2.33317 6.20085 3.22659 5.26347C4.127 4.33116 5.34669 3.80762 6.61826 3.80762C7.88983 3.80762 9.10952 4.33116 10.0099 5.26347L10.9999 6.29144L11.9899 5.26347C12.8903 4.33116 14.11 3.80762 15.3816 3.80762C16.6532 3.80762 17.8729 4.33116 18.7733 5.26347C19.6667 6.20085 20.1678 7.46641 20.1678 8.78523C20.1678 10.1041 19.6667 11.3696 18.7733 12.307L11.6508 19.7122C11.5651 19.8004 11.4635 19.8702 11.3518 19.9176C11.2402 19.965 11.1206 19.989 10.9999 19.9883Z" fill="#FE0135"/>
</svg>
