<svg width="43" height="42" viewBox="0 0 43 42" fill="none" xmlns="http://www.w3.org/2000/svg">
<path d="M5.375 33.25V31.5C5.375 27.634 8.58363 24.5 12.5417 24.5H19.7083C23.6664 24.5 26.875 27.634 26.875 31.5V33.25M26.875 19.25C29.8435 19.25 32.25 16.8995 32.25 14C32.25 11.1005 29.8435 8.75 26.875 8.75M37.625 33.25V31.5C37.625 27.634 34.4164 24.5 30.4583 24.5H29.5625M21.5 14C21.5 16.8995 19.0935 19.25 16.125 19.25C13.1565 19.25 10.75 16.8995 10.75 14C10.75 11.1005 13.1565 8.75 16.125 8.75C19.0935 8.75 21.5 11.1005 21.5 14Z" stroke="white" stroke-width="2" stroke-linecap="round" stroke-linejoin="round"/>
</svg>
