<svg width="43" height="42" viewBox="0 0 43 42" fill="none" xmlns="http://www.w3.org/2000/svg">
<path d="M10.1981 10.5851L9.70685 11.4561H9.70685L10.1981 10.5851ZM8.81816 10.9548L7.95731 10.4459L8.81816 10.9548ZM6.25253 15.2952L7.11338 15.8041H7.11338L6.25253 15.2952ZM6.61473 16.6473L6.12352 17.5183H6.12352L6.61473 16.6473ZM6.61472 25.3527L6.12352 24.4817L6.12352 24.4817L6.61472 25.3527ZM6.25253 26.7048L5.39167 27.2136H5.39167L6.25253 26.7048ZM8.81816 31.0452L7.95731 31.5541L7.95731 31.5541L8.81816 31.0452ZM10.1981 31.4149L9.70686 30.5438L9.70685 30.5438L10.1981 31.4149ZM32.802 31.4149L33.2932 30.5438V30.5438L32.802 31.4149ZM34.1818 31.0452L35.0427 31.5541V31.5541L34.1818 31.0452ZM36.7475 26.7048L37.6083 27.2136H37.6083L36.7475 26.7048ZM36.3853 25.3527L35.8941 26.2237H35.8941L36.3853 25.3527ZM36.3853 16.6473L36.8765 17.5183V17.5183L36.3853 16.6473ZM36.7475 15.2952L37.6083 14.7864L37.6083 14.7864L36.7475 15.2952ZM34.1818 10.9548L33.321 11.4636L33.321 11.4636L34.1818 10.9548ZM32.802 10.5851L33.2932 11.4562V11.4562L32.802 10.5851ZM25.7489 11.352L26.1367 10.4303L25.7489 11.352ZM29.088 12.6795L28.5968 11.8084L29.088 12.6795ZM32.1793 19.7891L33.1724 19.6723L32.1793 19.7891ZM32.6954 18.7281L33.1866 19.5991L32.6954 18.7281ZM27.9416 29.4069L28.5324 30.2138L27.9416 29.4069ZM29.088 29.3205L28.5968 30.1915L29.088 29.3205ZM32.6954 23.2719L32.2042 24.1429L32.6954 23.2719ZM17.2511 30.648L16.8633 31.5697L17.2511 30.648ZM15.0584 29.4069L15.6492 28.6001L15.0584 29.4069ZM25.7489 30.648L25.3611 29.7262L25.7489 30.648ZM10.8207 22.2109L9.82756 22.3277L10.8207 22.2109ZM10.3046 18.7281L10.7958 17.857L10.3046 18.7281ZM10.8207 19.7891L11.8139 19.9058L10.8207 19.7891ZM15.0584 12.5931L14.4677 11.7862L15.0584 12.5931ZM13.912 12.6795L14.4032 11.8084L13.912 12.6795ZM17.2511 11.352L17.6389 12.2738L17.2511 11.352ZM18.9167 6.25V4.25C17.8121 4.25 16.9167 5.14543 16.9167 6.25H18.9167ZM18.9167 10.3848V6.25H16.9167V10.3848H18.9167ZM15.6492 13.3999C16.2606 12.9522 16.9279 12.5729 17.6389 12.2738L16.8633 10.4303C16.0075 10.7903 15.2042 11.247 14.4677 11.7862L15.6492 13.3999ZM9.70685 11.4561L13.4208 13.5505L14.4032 11.8084L10.6893 9.71406L9.70685 11.4561ZM9.67902 11.4636C9.68001 11.4619 9.68065 11.4613 9.68183 11.4604C9.6836 11.4591 9.687 11.4572 9.69186 11.4559C9.69672 11.4546 9.70063 11.4545 9.70281 11.4548C9.70428 11.455 9.70516 11.4552 9.70685 11.4561L10.6893 9.71406C9.73405 9.17539 8.51533 9.50187 7.95731 10.4459L9.67902 11.4636ZM7.11338 15.8041L9.67902 11.4636L7.95731 10.4459L5.39167 14.7864L7.11338 15.8041ZM7.10593 15.7762C7.10434 15.7753 7.1065 15.7764 7.10923 15.78C7.11154 15.783 7.11299 15.7861 7.11378 15.789C7.11457 15.792 7.11488 15.7954 7.11439 15.7992C7.1138 15.8037 7.11246 15.8056 7.11338 15.8041L5.39167 14.7864C4.82555 15.7441 5.15445 16.9718 6.12352 17.5183L7.10593 15.7762ZM10.7958 17.857L7.10593 15.7762L6.12352 17.5183L9.8134 19.5991L10.7958 17.857ZM11.75 21C11.75 20.6296 11.7717 20.2645 11.8139 19.9058L9.82756 19.6723C9.77631 20.1083 9.75001 20.5513 9.75001 21H11.75ZM11.8139 22.0942C11.7717 21.7355 11.75 21.3704 11.75 21H9.75001C9.75001 21.4486 9.77631 21.8917 9.82756 22.3277L11.8139 22.0942ZM7.10593 26.2237L10.7958 24.1429L9.81339 22.4008L6.12352 24.4817L7.10593 26.2237ZM7.11338 26.1959C7.11246 26.1943 7.1138 26.1963 7.11439 26.2008C7.11488 26.2045 7.11457 26.208 7.11378 26.2109C7.11299 26.2139 7.11154 26.217 7.10923 26.22C7.1065 26.2236 7.10434 26.2246 7.10593 26.2237L6.12352 24.4817C5.15444 25.0281 4.82556 26.2559 5.39167 27.2136L7.11338 26.1959ZM9.67902 30.5364L7.11338 26.1959L5.39167 27.2136L7.95731 31.5541L9.67902 30.5364ZM9.70685 30.5438C9.70516 30.5448 9.70428 30.545 9.70281 30.5452C9.70063 30.5455 9.69671 30.5454 9.69186 30.5441C9.687 30.5428 9.6836 30.5409 9.68183 30.5396C9.68065 30.5387 9.68001 30.538 9.67902 30.5364L7.95731 31.5541C8.51533 32.4981 9.73405 32.8246 10.6893 32.2859L9.70685 30.5438ZM13.4208 28.4494L9.70686 30.5438L10.6893 32.2859L14.4032 30.1915L13.4208 28.4494ZM17.6389 29.7262C16.9279 29.4271 16.2606 29.0478 15.6492 28.6001L14.4677 30.2138C15.2042 30.753 16.0075 31.2097 16.8633 31.5697L17.6389 29.7262ZM18.9167 35.75V31.6152H16.9167V35.75H18.9167ZM18.9167 35.75H18.9167H16.9167C16.9167 36.8546 17.8121 37.75 18.9167 37.75V35.75ZM24.0833 35.75H18.9167V37.75H24.0833V35.75ZM24.0833 35.75V37.75C25.1879 37.75 26.0833 36.8546 26.0833 35.75H24.0833ZM24.0833 31.6152V35.75H26.0833V31.6152H24.0833ZM27.3508 28.6001C26.7394 29.0478 26.0721 29.4271 25.3611 29.7262L26.1367 31.5697C26.9925 31.2097 27.7958 30.753 28.5324 30.2138L27.3508 28.6001ZM33.2932 30.5438L29.5792 28.4495L28.5968 30.1915L32.3107 32.2859L33.2932 30.5438ZM33.321 30.5364C33.32 30.538 33.3194 30.5387 33.3182 30.5396C33.3164 30.5409 33.313 30.5428 33.3082 30.5441C33.3033 30.5454 33.2994 30.5455 33.2972 30.5452C33.2957 30.545 33.2948 30.5448 33.2932 30.5438L32.3107 32.2859C33.266 32.8246 34.4847 32.4981 35.0427 31.5541L33.321 30.5364ZM35.8866 26.1959L33.321 30.5364L35.0427 31.5541L37.6083 27.2136L35.8866 26.1959ZM35.8941 26.2237C35.8957 26.2246 35.8935 26.2236 35.8908 26.22C35.8885 26.217 35.887 26.2139 35.8862 26.2109C35.8854 26.208 35.8851 26.2045 35.8856 26.2008C35.8862 26.1963 35.8876 26.1943 35.8866 26.1959L37.6083 27.2136C38.1744 26.2559 37.8456 25.0281 36.8765 24.4817L35.8941 26.2237ZM32.2042 24.1429L35.8941 26.2237L36.8765 24.4817L33.1866 22.4009L32.2042 24.1429ZM31.25 21C31.25 21.3704 31.2283 21.7355 31.1861 22.0942L33.1725 22.3277C33.2237 21.8917 33.25 21.4487 33.25 21H31.25ZM31.1861 19.9058C31.2283 20.2645 31.25 20.6296 31.25 21H33.25C33.25 20.5513 33.2237 20.1083 33.1724 19.6723L31.1861 19.9058ZM35.8941 15.7762L32.2042 17.857L33.1866 19.5991L36.8765 17.5183L35.8941 15.7762ZM35.8866 15.8041C35.8876 15.8056 35.8862 15.8037 35.8856 15.7992C35.8851 15.7954 35.8854 15.792 35.8862 15.789C35.887 15.7861 35.8885 15.783 35.8908 15.78C35.8935 15.7764 35.8957 15.7753 35.8941 15.7762L36.8765 17.5183C37.8456 16.9718 38.1745 15.7441 37.6083 14.7864L35.8866 15.8041ZM33.321 11.4636L35.8866 15.8041L37.6083 14.7864L35.0427 10.4459L33.321 11.4636ZM33.2932 11.4562C33.2948 11.4552 33.2957 11.455 33.2972 11.4548C33.2994 11.4545 33.3033 11.4546 33.3082 11.4559C33.313 11.4572 33.3164 11.4591 33.3182 11.4604C33.3194 11.4613 33.32 11.4619 33.321 11.4636L35.0427 10.4459C34.4847 9.50187 33.266 9.17539 32.3107 9.71406L33.2932 11.4562ZM29.5792 13.5505L33.2932 11.4562L32.3107 9.71406L28.5968 11.8084L29.5792 13.5505ZM25.3611 12.2738C26.0721 12.5729 26.7394 12.9522 27.3508 13.3999L28.5323 11.7862C27.7958 11.247 26.9925 10.7903 26.1367 10.4303L25.3611 12.2738ZM24.0833 6.25V10.3848H26.0833V6.25H24.0833ZM24.0833 6.25H26.0833C26.0833 5.14543 25.1879 4.25 24.0833 4.25V6.25ZM18.9167 6.25H24.0833V4.25H18.9167V6.25ZM26.1367 10.4303C26.1123 10.42 26.0964 10.405 26.0885 10.3936C26.0848 10.3884 26.0836 10.3851 26.0833 10.3843C26.0832 10.3839 26.0832 10.3839 26.0833 10.3842C26.0833 10.3843 26.0833 10.3845 26.0833 10.3846C26.0833 10.3847 26.0833 10.3848 26.0833 10.3848H24.0833C24.0833 11.2507 24.6323 11.9672 25.3611 12.2738L26.1367 10.4303ZM28.5968 11.8084C28.5968 11.8085 28.5968 11.8084 28.5968 11.8084C28.5969 11.8084 28.5969 11.8084 28.597 11.8083C28.5971 11.8083 28.5973 11.8082 28.5974 11.8082C28.5977 11.8081 28.5977 11.8081 28.5973 11.8082C28.5964 11.8084 28.5931 11.8089 28.5869 11.8084C28.5736 11.8073 28.5532 11.8015 28.5323 11.7862L27.3508 13.3999C27.9733 13.8557 28.8437 13.9653 29.5792 13.5505L28.5968 11.8084ZM33.1724 19.6723C33.1692 19.6444 33.1747 19.6218 33.1811 19.6085C33.184 19.6024 33.1864 19.5996 33.1871 19.5989C33.1874 19.5985 33.1874 19.5986 33.1871 19.5988C33.187 19.5989 33.1869 19.5989 33.1868 19.599C33.1867 19.5991 33.1866 19.5991 33.1866 19.5991L32.2042 17.857C31.4456 18.2849 31.0938 19.1202 31.1861 19.9058L33.1724 19.6723ZM28.5324 30.2138C28.5532 30.1985 28.5736 30.1926 28.5869 30.1916C28.5931 30.191 28.5965 30.1916 28.5973 30.1918C28.5977 30.1919 28.5977 30.1919 28.5974 30.1918C28.5973 30.1918 28.5971 30.1917 28.597 30.1916C28.5969 30.1916 28.5969 30.1916 28.5969 30.1916C28.5968 30.1916 28.5968 30.1915 28.5968 30.1915L29.5792 28.4495C28.8437 28.0347 27.9733 28.1443 27.3508 28.6001L28.5324 30.2138ZM33.1866 22.4009C33.1866 22.4008 33.1867 22.4009 33.1868 22.401C33.1869 22.401 33.187 22.4011 33.1871 22.4012C33.1874 22.4014 33.1874 22.4014 33.1871 22.4011C33.1864 22.4004 33.184 22.3976 33.1811 22.3914C33.1747 22.3781 33.1692 22.3555 33.1725 22.3277L31.1861 22.0942C31.0938 22.8798 31.4456 23.7151 32.2042 24.1429L33.1866 22.4009ZM16.8633 31.5697C16.8877 31.58 16.9036 31.595 16.9116 31.6064C16.9152 31.6116 16.9164 31.6149 16.9167 31.6157C16.9168 31.6161 16.9168 31.6161 16.9167 31.6158C16.9167 31.6157 16.9167 31.6155 16.9167 31.6154C16.9167 31.6153 16.9167 31.6152 16.9167 31.6152H18.9167C18.9167 30.7493 18.3677 30.0328 17.6389 29.7262L16.8633 31.5697ZM14.4032 30.1915C14.4032 30.1915 14.4032 30.1915 14.4032 30.1916C14.4031 30.1916 14.4031 30.1916 14.403 30.1916C14.4029 30.1917 14.4027 30.1918 14.4026 30.1918C14.4023 30.1919 14.4023 30.1919 14.4027 30.1918C14.4036 30.1916 14.4069 30.191 14.4131 30.1915C14.4264 30.1926 14.4468 30.1985 14.4677 30.2138L15.6492 28.6001C15.0267 28.1443 14.1563 28.0347 13.4208 28.4494L14.4032 30.1915ZM26.0833 31.6152C26.0833 31.6152 26.0833 31.6153 26.0833 31.6154C26.0833 31.6155 26.0833 31.6157 26.0833 31.6158C26.0832 31.6161 26.0832 31.6161 26.0833 31.6157C26.0836 31.6149 26.0848 31.6116 26.0885 31.6064C26.0964 31.595 26.1123 31.58 26.1367 31.5697L25.3611 29.7262C24.6323 30.0328 24.0833 30.7493 24.0833 31.6152H26.0833ZM9.82756 22.3277C9.83084 22.3555 9.82528 22.3781 9.81893 22.3914C9.81601 22.3976 9.81357 22.4004 9.81295 22.4011C9.81264 22.4014 9.81261 22.4014 9.81287 22.4012C9.81298 22.4011 9.81311 22.401 9.81323 22.401C9.81335 22.4009 9.81342 22.4008 9.81339 22.4008L10.7958 24.1429C11.5544 23.7151 11.9062 22.8798 11.8139 22.0942L9.82756 22.3277ZM9.8134 19.5991C9.81342 19.5991 9.81336 19.5991 9.81323 19.599C9.81311 19.5989 9.81298 19.5989 9.81287 19.5988C9.81261 19.5986 9.81264 19.5985 9.81295 19.5989C9.81357 19.5996 9.81601 19.6024 9.81893 19.6085C9.82528 19.6218 9.83084 19.6444 9.82756 19.6723L11.8139 19.9058C11.9063 19.1202 11.5544 18.2849 10.7958 17.857L9.8134 19.5991ZM14.4677 11.7862C14.4468 11.8015 14.4264 11.8073 14.4131 11.8084C14.407 11.8089 14.4036 11.8084 14.4028 11.8082C14.4023 11.8081 14.4023 11.8081 14.4026 11.8082C14.4027 11.8082 14.4029 11.8083 14.403 11.8083C14.4031 11.8084 14.4031 11.8084 14.4032 11.8084C14.4032 11.8084 14.4032 11.8085 14.4032 11.8084L13.4208 13.5505C14.1563 13.9653 15.0267 13.8557 15.6492 13.3999L14.4677 11.7862ZM16.9167 10.3848C16.9167 10.3848 16.9167 10.3847 16.9167 10.3846C16.9167 10.3845 16.9167 10.3843 16.9167 10.3842C16.9168 10.3839 16.9168 10.3839 16.9167 10.3843C16.9164 10.3851 16.9152 10.3884 16.9116 10.3936C16.9036 10.405 16.8877 10.42 16.8633 10.4303L17.6389 12.2738C18.3677 11.9672 18.9167 11.2507 18.9167 10.3848H16.9167Z" fill="white"/>
<ellipse cx="21.5" cy="21" rx="5.375" ry="5.25" stroke="white" stroke-width="2" stroke-linecap="round" stroke-linejoin="round"/>
</svg>
