<svg width="65" height="65" viewBox="0 0 65 65" fill="none" xmlns="http://www.w3.org/2000/svg">
<path d="M26.9331 51.1726C26.3039 51.1738 25.694 50.9547 25.2094 50.5532C24.9367 50.3271 24.7113 50.0494 24.546 49.736C24.3808 49.4227 24.279 49.0798 24.2465 48.727C24.214 48.3743 24.2513 48.0186 24.3565 47.6803C24.4617 47.342 24.6325 47.0278 24.8593 46.7556L36.9253 32.3195L25.2902 17.8565C25.0665 17.581 24.8994 17.264 24.7986 16.9238C24.6978 16.5835 24.6652 16.2267 24.7028 15.8738C24.7403 15.5209 24.8472 15.1789 25.0174 14.8674C25.1875 14.556 25.4176 14.2812 25.6942 14.059C25.9729 13.8138 26.2992 13.6288 26.6528 13.5157C27.0063 13.4027 27.3794 13.3639 27.7486 13.4018C28.1178 13.4397 28.4752 13.5536 28.7984 13.7362C29.1215 13.9188 29.4035 14.1662 29.6264 14.463L42.6351 30.6228C43.0312 31.1047 43.2478 31.7092 43.2478 32.333C43.2478 32.9568 43.0312 33.5613 42.6351 34.0432L29.1686 50.203C28.8984 50.529 28.5552 50.7866 28.1668 50.9551C27.7784 51.1235 27.3557 51.1981 26.9331 51.1726Z" fill="#4D4D4D"/>
</svg>
