<svg width="27" height="27" viewBox="0 0 27 27" fill="none" xmlns="http://www.w3.org/2000/svg">
<mask id="mask0_134_4897" style="mask-type:alpha" maskUnits="userSpaceOnUse" x="0" y="0" width="27" height="27">
<rect x="0.956299" y="0.890503" width="25.9563" height="25.9563" fill="#D9D9D9"/>
</mask>
<g mask="url(#mask0_134_4897)">
<path d="M12.4203 15.815L10.0951 13.4897C9.89682 13.2914 9.64447 13.1923 9.33804 13.1923C9.03161 13.1923 8.77926 13.2914 8.58098 13.4897C8.38271 13.688 8.28357 13.9403 8.28357 14.2468C8.28357 14.5532 8.38271 14.8055 8.58098 15.0038L11.6633 18.0861C11.8796 18.3024 12.1319 18.4106 12.4203 18.4106C12.7088 18.4106 12.9611 18.3024 13.1774 18.0861L19.2879 11.9756C19.4862 11.7773 19.5854 11.525 19.5854 11.2185C19.5854 10.9121 19.4862 10.6598 19.2879 10.4615C19.0897 10.2632 18.8373 10.1641 18.5309 10.1641C18.2245 10.1641 17.9721 10.2632 17.7738 10.4615L12.4203 15.815ZM13.9345 24.6833C12.4384 24.6833 11.0324 24.3995 9.71657 23.8317C8.40073 23.2639 7.25613 22.4933 6.28277 21.5199C5.30941 20.5466 4.53884 19.402 3.97104 18.0861C3.40325 16.7703 3.11935 15.3643 3.11935 13.8682C3.11935 12.3722 3.40325 10.9662 3.97104 9.65035C4.53884 8.33451 5.30941 7.18991 6.28277 6.21655C7.25613 5.24319 8.40073 4.47261 9.71657 3.90482C11.0324 3.33703 12.4384 3.05313 13.9345 3.05313C15.4306 3.05313 16.8365 3.33703 18.1524 3.90482C19.4682 4.47261 20.6128 5.24319 21.5862 6.21655C22.5595 7.18991 23.3301 8.33451 23.8979 9.65035C24.4657 10.9662 24.7496 12.3722 24.7496 13.8682C24.7496 15.3643 24.4657 16.7703 23.8979 18.0861C23.3301 19.402 22.5595 20.5466 21.5862 21.5199C20.6128 22.4933 19.4682 23.2639 18.1524 23.8317C16.8365 24.3995 15.4306 24.6833 13.9345 24.6833ZM13.9345 22.5203C16.3498 22.5203 18.3957 21.6822 20.072 20.0058C21.7484 18.3295 22.5865 16.2836 22.5865 13.8682C22.5865 11.4529 21.7484 9.40701 20.072 7.73067C18.3957 6.05432 16.3498 5.21615 13.9345 5.21615C11.5191 5.21615 9.47323 6.05432 7.79689 7.73067C6.12055 9.40701 5.28238 11.4529 5.28238 13.8682C5.28238 16.2836 6.12055 18.3295 7.79689 20.0058C9.47323 21.6822 11.5191 22.5203 13.9345 22.5203Z" fill="#949494"/>
</g>
</svg>
