<svg width="31" height="30" viewBox="0 0 31 30" fill="none" xmlns="http://www.w3.org/2000/svg">
<path d="M24.5416 25.0001H6.45829C6.11572 25.0001 5.78718 25.1318 5.54495 25.3662C5.30271 25.6007 5.16663 25.9186 5.16663 26.2501C5.16663 26.5816 5.30271 26.8996 5.54495 27.134C5.78718 27.3684 6.11572 27.5001 6.45829 27.5001H24.5416C24.8842 27.5001 25.2127 27.3684 25.455 27.134C25.6972 26.8996 25.8333 26.5816 25.8333 26.2501C25.8333 25.9186 25.6972 25.6007 25.455 25.3662C25.2127 25.1318 24.8842 25.0001 24.5416 25.0001Z" fill="white"/>
<path d="M6.45835 22.4999H6.5746L11.9609 22.0249C12.5509 21.9681 13.1027 21.7165 13.5238 21.3124L25.1488 10.0624C25.6 9.60115 25.8438 8.98558 25.8269 8.35061C25.8099 7.71565 25.5336 7.11308 25.0584 6.67494L21.5192 3.24994C21.0573 2.83006 20.452 2.58914 19.8185 2.57301C19.185 2.55688 18.5674 2.76666 18.0834 3.16244L6.45835 14.4124C6.04084 14.8199 5.78088 15.3539 5.7221 15.9249L5.16668 21.1374C5.14928 21.3205 5.17383 21.5051 5.23858 21.6779C5.30333 21.8508 5.40668 22.0077 5.54127 22.1374C5.66196 22.2533 5.8051 22.345 5.96247 22.4072C6.11984 22.4694 6.28836 22.5009 6.45835 22.4999ZM19.7238 4.99994L23.25 8.41244L20.6667 10.8499L17.205 7.49994L19.7238 4.99994ZM8.22793 16.1374L15.5 9.14994L18.9875 12.5249L11.7542 19.5249L7.87918 19.8749L8.22793 16.1374Z" fill="white"/>
</svg>
