<svg xmlns="http://www.w3.org/2000/svg" width="31" height="30" viewBox="0 0 31 30" fill="none">
<path d="M24.5415 25H6.45817C6.1156 25 5.78706 25.1317 5.54482 25.3661C5.30259 25.6005 5.1665 25.9185 5.1665 26.25C5.1665 26.5815 5.30259 26.8995 5.54482 27.1339C5.78706 27.3683 6.1156 27.5 6.45817 27.5H24.5415C24.8841 27.5 25.2126 27.3683 25.4549 27.1339C25.6971 26.8995 25.8332 26.5815 25.8332 26.25C25.8332 25.9185 25.6971 25.6005 25.4549 25.3661C25.2126 25.1317 24.8841 25 24.5415 25Z" fill="white"/>
<path d="M6.45823 22.4998H6.57448L11.9607 22.0248C12.5508 21.9679 13.1026 21.7164 13.5236 21.3123L25.1486 10.0623C25.5998 9.60103 25.8437 8.98546 25.8267 8.35049C25.8098 7.71553 25.5334 7.11296 25.0582 6.67482L21.5191 3.24982C21.0572 2.82994 20.4519 2.58902 19.8184 2.57289C19.1849 2.55675 18.5673 2.76653 18.0832 3.16232L6.45823 14.4123C6.04072 14.8198 5.78075 15.3538 5.72198 15.9248L5.16656 21.1373C5.14916 21.3204 5.17371 21.505 5.23846 21.6778C5.3032 21.8507 5.40656 22.0076 5.54114 22.1373C5.66184 22.2532 5.80498 22.3448 5.96235 22.407C6.11972 22.4692 6.28824 22.5008 6.45823 22.4998ZM19.7236 4.99982L23.2499 8.41232L20.6666 10.8498L17.2049 7.49982L19.7236 4.99982ZM8.22781 16.1373L15.4999 9.14982L18.9874 12.5248L11.7541 19.5248L7.87906 19.8748L8.22781 16.1373Z" fill="white"/>
</svg>