<svg width="53" height="46" viewBox="0 0 53 46" fill="none" xmlns="http://www.w3.org/2000/svg">
<path d="M22.0833 36.4165C21.5673 36.4173 21.0673 36.2614 20.67 35.9756C20.4464 35.8147 20.2615 35.6171 20.126 35.3941C19.9906 35.1711 19.9071 34.9271 19.8804 34.6761C19.8538 34.425 19.8844 34.1719 19.9706 33.9312C20.0569 33.6904 20.197 33.4668 20.3829 33.2731L30.2762 22.9998L20.7362 12.7073C20.5528 12.5113 20.4158 12.2857 20.3331 12.0435C20.2505 11.8014 20.2238 11.5474 20.2546 11.2963C20.2853 11.0452 20.373 10.8018 20.5125 10.5801C20.652 10.3585 20.8406 10.163 21.0675 10.0048C21.296 9.83032 21.5635 9.69871 21.8534 9.61823C22.1433 9.53775 22.4492 9.51014 22.7519 9.53714C23.0547 9.56413 23.3477 9.64515 23.6127 9.7751C23.8777 9.90506 24.1088 10.0811 24.2916 10.2923L34.9579 21.7923C35.2827 22.1353 35.4603 22.5654 35.4603 23.0094C35.4603 23.4533 35.2827 23.8835 34.9579 24.2265L23.9162 35.7265C23.6947 35.9584 23.4133 36.1418 23.0948 36.2617C22.7764 36.3815 22.4298 36.4346 22.0833 36.4165Z" fill="#085F63"/>
</svg>
